<?xml version="1.0" standalone="no"?>
<!DOCTYPE svg PUBLIC "-//W3C//DTD SVG 20010904//EN"
 "http://www.w3.org/TR/2001/REC-SVG-20010904/DTD/svg10.dtd">
<svg version="1.0" xmlns="http://www.w3.org/2000/svg"
 width="1100.000000pt" height="1100.000000pt" viewBox="0 0 1100.000000 1100.000000"
 preserveAspectRatio="xMidYMid meet">
<metadata>
Created by potrace 1.11, written by Peter Selinger 2001-2013
</metadata>
<g transform="translate(0.000000,1100.000000) scale(0.100000,-0.100000)"
fill="#000000" stroke="none">
<path d="M6667 9344 c-2 -2 -45 -6 -96 -9 -51 -3 -109 -7 -129 -10 -21 -2 -62
-7 -92 -10 -107 -11 -135 -15 -160 -20 -14 -2 -43 -7 -65 -10 -23 -3 -52 -8
-65 -10 -14 -3 -43 -7 -65 -10 -21 -3 -55 -10 -75 -15 -19 -5 -53 -12 -75 -15
-53 -8 -309 -71 -410 -100 -192 -56 -244 -73 -400 -130 -55 -20 -113 -41 -130
-47 -16 -6 -34 -14 -40 -18 -5 -4 -28 -13 -50 -20 -22 -7 -82 -33 -133 -56
-52 -24 -96 -44 -99 -44 -7 0 -448 -222 -513 -259 -30 -17 -70 -38 -89 -46
-18 -9 -50 -27 -70 -39 -20 -13 -70 -43 -111 -67 -98 -57 -367 -230 -441 -283
-32 -22 -83 -59 -115 -81 -31 -22 -62 -46 -70 -52 -7 -7 -17 -13 -22 -13 -6 0
-12 -3 -14 -8 -1 -4 -64 -54 -138 -112 -74 -58 -142 -112 -150 -120 -9 -8 -50
-44 -93 -80 -42 -35 -77 -68 -77 -72 0 -4 -4 -8 -10 -8 -23 0 -416 -392 -560
-559 -30 -35 -62 -72 -70 -81 -121 -139 -289 -360 -419 -552 -31 -47 -33 -48
-79 -46 -41 1 -143 -29 -262 -79 -8 -3 -17 -7 -20 -8 -3 -1 -12 -4 -20 -7 -73
-28 -319 -118 -323 -118 -2 0 -22 -8 -43 -17 -22 -9 -41 -17 -44 -18 -3 -1
-13 -5 -22 -9 -9 -4 -22 -9 -30 -10 -7 -2 -26 -8 -43 -15 -16 -6 -41 -16 -55
-21 -14 -5 -38 -15 -55 -21 -16 -7 -36 -13 -43 -15 -45 -9 -113 -67 -317 -270
-126 -126 -238 -244 -247 -261 -10 -18 -18 -46 -18 -63 0 -27 20 -100 40 -145
5 -11 32 -83 60 -160 28 -77 55 -149 60 -160 5 -11 19 -49 31 -85 12 -36 25
-69 30 -74 5 -6 9 -19 9 -31 0 -12 4 -25 9 -30 4 -6 25 -57 46 -115 21 -58 42
-116 48 -130 5 -14 11 -32 13 -40 2 -8 7 -23 13 -35 10 -20 191 -501 196 -520
1 -5 8 -23 14 -40 13 -31 48 -124 95 -255 15 -41 31 -84 35 -95 5 -11 28 -69
52 -130 23 -60 64 -156 91 -212 26 -56 48 -106 48 -112 0 -5 4 -11 8 -13 5 -1
27 -37 50 -78 53 -94 63 -109 84 -134 10 -11 24 -32 30 -48 7 -15 16 -28 20
-28 4 0 13 -11 20 -24 23 -42 145 -176 244 -266 95 -87 296 -220 354 -235 3
-1 28 -11 55 -24 96 -44 161 -64 284 -88 47 -9 98 -25 114 -35 15 -11 27 -16
27 -13 0 3 12 -2 28 -13 117 -80 522 -234 772 -292 19 -5 46 -11 60 -14 91
-22 269 -51 365 -62 28 -3 61 -7 75 -9 104 -19 622 -26 810 -13 131 10 212 17
245 22 17 3 53 8 80 11 28 3 59 8 70 10 11 2 40 7 65 10 50 7 85 13 85 15 0 1
16 3 35 5 33 4 50 7 110 20 14 3 36 7 50 10 23 4 38 7 98 20 52 11 65 14 83
20 10 4 29 8 42 9 12 2 40 8 62 14 172 50 264 75 285 79 13 2 30 9 37 15 7 6
13 8 13 5 0 -3 33 6 73 20 39 13 79 26 87 28 8 2 29 8 45 15 17 6 31 11 32 11
2 0 33 11 70 25 87 32 93 34 96 32 1 0 21 9 45 21 23 12 42 19 42 15 0 -4 6
-1 14 5 8 7 22 13 32 16 29 6 168 64 312 131 40 19 76 34 80 34 7 0 435 212
442 220 10 10 65 41 83 47 9 3 17 10 17 15 0 5 4 7 9 3 5 -3 16 2 24 10 9 8
18 15 21 15 17 0 449 278 454 292 2 4 10 8 17 8 8 0 18 6 22 14 4 7 19 19 33
26 14 7 32 19 40 27 8 7 45 35 81 61 37 27 74 56 84 65 9 9 20 17 24 17 4 0
16 8 27 18 10 10 42 36 69 57 51 40 58 46 106 88 14 12 54 47 89 77 58 50 127
111 186 165 73 67 294 288 369 371 50 53 102 110 117 125 15 16 50 57 79 91
28 35 55 65 58 68 4 3 34 39 66 80 33 41 62 77 65 80 10 9 135 175 153 203 10
15 24 27 32 27 8 0 15 4 15 8 0 5 6 9 13 9 51 0 487 237 487 265 0 4 5 8 11 8
10 0 103 67 164 120 84 71 281 277 354 370 45 58 90 114 99 125 25 31 165 242
208 315 38 63 111 207 152 300 20 44 68 185 63 185 -1 0 3 14 9 30 16 41 53
222 66 320 2 17 6 118 8 225 3 217 -9 344 -49 519 -9 40 -18 78 -20 85 -1 6
-4 18 -7 26 -3 8 -19 58 -36 110 -45 140 -130 340 -144 340 -5 0 -8 6 -8 14 0
12 -32 73 -70 131 -8 13 -28 45 -44 72 -16 26 -32 50 -36 53 -3 3 -17 21 -30
40 -52 75 -181 222 -252 288 -28 26 -62 57 -74 70 -13 12 -28 22 -34 22 -5 0
-10 4 -10 8 0 5 -25 26 -56 48 -30 21 -61 44 -67 49 -21 17 -71 51 -87 59 -8
4 -33 18 -55 32 -22 13 -52 30 -67 36 -16 7 -28 16 -28 20 0 4 -6 8 -13 8 -8
0 -42 14 -77 31 -62 30 -269 103 -320 113 -14 3 -36 8 -50 11 -25 6 -120 23
-175 31 -32 5 -387 8 -470 3 -27 -1 -63 3 -80 10 -16 7 -31 12 -33 12 -1 -1
-16 6 -32 14 -17 9 -30 13 -30 10 0 -3 -12 1 -27 8 -16 8 -64 24 -108 36 -44
12 -89 26 -100 31 -17 7 -64 20 -128 35 -10 2 -28 7 -40 11 -12 4 -29 8 -37
10 -8 1 -37 7 -65 14 -47 11 -61 14 -117 24 -13 2 -34 7 -48 10 -14 3 -38 8
-55 10 -16 3 -39 7 -50 9 -34 7 -167 26 -230 32 -22 2 -65 7 -95 10 -30 4 -80
9 -110 11 -71 6 -657 13 -663 8z"/>
</g>
</svg>
